HIERARCHY
ROOT Hips
{
  OFFSET 90.7885 88.945 -76.2838
  CHANNELS 6 Xposition Yposition Zposition Zrotation Xrotation Yrotation
  JOINT LeftUpLeg
  {
    OFFSET 8.64259 1.95398 -2.38835
    CHANNELS 3 Zrotation Xrotation Yrotation
    JOINT LeftLeg
    {
      OFFSET 43.7702 0 0
      CHANNELS 3 Zrotation Xrotation Yrotation
      JOINT LeftFoot
      {
        OFFSET 40.6238 0 0
        CHANNELS 3 Zrotation Xrotation Yrotation
        JOINT LeftToeBase
        {
          OFFSET 12.7242 0 0
          CHANNELS 3 Zrotation Xrotation Yrotation
          End Site
          {
            OFFSET 0 0 0
          }
        }
      }
    }
  }
  JOINT RightUpLeg
  {
    OFFSET -8.2249 1.95398 -2.59336
    CHANNELS 3 Zrotation Xrotation Yrotation
    JOINT RightLeg
    {
      OFFSET 43.5653 0 0
      CHANNELS 3 Zrotation Xrotation Yrotation
      JOINT RightFoot
      {
        OFFSET 40.6238 0 0
        CHANNELS 3 Zrotation Xrotation Yrotation
        JOINT RightToeBase
        {
          OFFSET 12.7242 0 0
          CHANNELS 3 Zrotation Xrotation Yrotation
          End Site
          {
            OFFSET 0 0 0
          }
        }
      }
    }
  }
  JOINT Spine
  {
    OFFSET 0.165834 0.87714 6.61349
    CHANNELS 3 Zrotation Xrotation Yrotation
    JOINT Spine1
    {
      OFFSET 7.38963 1.71661e-005 0
      CHANNELS 3 Zrotation Xrotation Yrotation
      JOINT Spine2
      {
        OFFSET 11.9445 1.14441e-005 0
        CHANNELS 3 Zrotation Xrotation Yrotation
        JOINT Spine3
        {
          OFFSET 14.7254 4.19617e-005 0
          CHANNELS 3 Zrotation Xrotation Yrotation
          JOINT Spine4
          {
            OFFSET 10.9679 0 0
            CHANNELS 3 Zrotation Xrotation Yrotation
            JOINT RightShoulder
            {
              OFFSET 2.46616 -1.6653 3.69651
              CHANNELS 3 Zrotation Xrotation Yrotation
              JOINT RightArm
              {
                OFFSET 13.0012 0 0
                CHANNELS 3 Zrotation Xrotation Yrotation
                JOINT RightForeArm
                {
                  OFFSET 28.7848 1.52588e-005 0
                  CHANNELS 3 Zrotation Xrotation Yrotation
                  JOINT RightHand
                  {
                    OFFSET 26.5688 1.52588e-005 0
                    CHANNELS 3 Zrotation Xrotation Yrotation
                    End Site
                    {
                      OFFSET 0 0 0
                    }
                  }
                }
              }
            }
            JOINT LeftShoulder
            {
              OFFSET 2.38034 -1.29275 -3.7523
              CHANNELS 3 Zrotation Xrotation Yrotation
              JOINT LeftArm
              {
                OFFSET 16.3182 6.10352e-005 0
                CHANNELS 3 Zrotation Xrotation Yrotation
                JOINT LeftForeArm
                {
                  OFFSET 27.0901 0 0
                  CHANNELS 3 Zrotation Xrotation Yrotation
                  JOINT LeftHand
                  {
                    OFFSET 24.5451 1.52588e-005 0
                    CHANNELS 3 Zrotation Xrotation Yrotation
                    End Site
                    {
                      OFFSET 0 0 0
                    }
                  }
                }
              }
            }
            JOINT Neck
            {
              OFFSET 5.0226 -0.0266342 0
              CHANNELS 3 Zrotation Xrotation Yrotation
              JOINT Head
              {
                OFFSET 6.69363 2.86102e-005 0
                CHANNELS 3 Zrotation Xrotation Yrotation
                End Site
                {
                  OFFSET 0 0 0
                }
              }
            }
          }
        }
      }
    }
  }
}
MOTION
Frames:	13
Frame Time:	0.0416667
18.3115 97.7487 -53.5424 -130.214 -78.83 -132.573 -178.011 2.58691 84.3121 -27.3522 -4.38161 -3.02761 78.9162 5.98439 -3.009 10.9646 -2.94664 5.79794 177.146 17.6203 86.9776 -49.5605 -7.83885 -3.99703 71.1652 -6.51882 -1.6019 20.4959 -0.224696 2.13136 -0.0170764 7.9034 -89.7781 11.0677 0.0689645 0.434926 -0.603288 0.0880372 0.431458 -23.138 -0.0649424 0.435542 -3.12539 -0.0649341 0.435545 90.1417 -29.2876 -106.748 41.9187 -13.788 -1.93167 3.54541 -20.8336 -16.5915 -23.988 0.0123092 -10.5819 -88.0104 -52.341 82.1238 -13.0326 11.714 -25.0723 3.33659 -11.849 -8.19987 1.08168 -0.175325 -7.2362 2.31597 3.06413 -2.44472 -5.89708 3.40426 0.329025 
17.6232 97.4676 -46.2625 -148.145 -82.3843 -150.663 -178.205 -2.01841 84.443 -25.8062 -0.0263056 -1.98242 81.8473 7.17461 -2.59045 10.7521 -2.2355 5.04922 174.459 19.9504 88.1852 -25.7367 -6.71272 -1.44961 63.4114 -3.2646 -1.60892 23.5407 -0.469094 2.10594 -0.641527 7.9326 -89.8365 11.0113 -1.20126 0.440376 -0.659128 -1.18071 0.492819 -23.1987 -1.27808 0.0589336 -3.18606 -1.27807 0.0589324 90.6662 -30.7409 -105.17 41.951 -10.5703 3.82706 2.43684 -22.2441 -17.3506 -22.5785 -0.311141 -9.47722 -88.3981 -47.9213 80.7272 -13.1588 9.61969 -35.0934 4.63524 -8.54898 -12.2329 2.37558 -0.267587 -8.63866 2.39533 3.11352 -4.70359 -5.77318 3.74062 2.64848 
17.095 96.1883 -38.1408 178.135 -83.546 174.297 -177.9 -7.93295 84.6001 -24.8925 3.89527 -1.76279 85.7764 8.80888 -3.53012 12.1745 -3.54687 6.38342 171.85 20.4605 87.6118 -6.79055 -2.68717 0.404414 61.8159 -1.96732 -1.60802 24.351 -1.8861 4.97574 -1.08399 7.98966 -89.7356 10.902 -2.03585 0.717931 -0.767609 -2.00228 0.806855 -23.3155 -2.15747 0.0726093 -3.30284 -2.15745 0.072614 91.1084 -32.246 -103.791 42.3935 -7.66919 8.12597 3.88257 -19.6425 -14.1214 -22.6687 -0.25419 -8.99264 -89.2873 -46.1098 78.9758 -11.4862 7.49437 -43.7724 6.71532 -2.27338 -14.4672 2.25952 -0.300573 -9.56263 1.99576 2.9304 -6.39103 -5.27737 3.78936 3.73537 
16.6045 94.1703 -29.224 144.033 -82.212 138.876 -176.852 -13.2518 85.8457 -25.7452 8.81957 -1.57821 88.787 10.5124 -4.13919 16.2317 -4.6075 7.56582 170.821 23.7039 85.6925 -6.63143 5.68574 1.0675 64.4625 -2.43361 -0.676038 26.1262 -1.02998 2.84864 -1.38414 7.99771 -89.7364 10.8893 -2.63392 0.772026 -0.779301 -2.59739 0.887266 -23.3359 -2.7441 -0.0558653 -3.32329 -2.74409 -0.0558524 91.7023 -32.3258 -102.62 43.3621 -6.31353 10.6781 6.33636 -17.0391 -9.1975 -19.4809 -0.135884 -9.51715 -90.473 -46.8333 77.2917 -11.0189 7.26189 -49.6494 7.54773 1.31779 -14.545 1.21367 -0.255483 -9.66937 3.05902 2.15882 -6.31712 -5.67389 3.05459 4.05944 
16.3062 93.0659 -20.0038 123.563 -79.6242 118.126 -175.501 -15.6304 88.1087 -29.2048 12.1948 -0.590362 83.3442 10.0321 -0.327318 32.9559 -0.929816 0.300557 168.372 26.9052 83.6721 -15.5798 4.57677 2.82364 56.6619 1.39962 -0.245953 23.0197 0.877795 -0.488845 -1.46563 8.03657 -89.9595 10.8085 -2.89963 0.351037 -0.859267 -2.88137 0.478409 -23.42 -2.87097 -0.5374 -3.40736 -2.87097 -0.537402 91.3924 -31.8423 -103.373 43.6438 -4.73386 10.5521 8.95648 -13.3648 -2.65846 -17.7321 -0.0927449 -9.17358 -91.6042 -47.329 75.678 -11.5576 10.3576 -52.8453 6.44923 4.65685 -10.4217 0.00290658 -0.174785 -8.4448 7.13551 1.27399 -3.38734 -6.49425 1.81208 2.95039 
15.7459 91.7372 -12.1264 116.08 -79.5053 111.139 -171.391 -9.00891 92.1804 -45.0658 15.4159 -0.693467 71.2838 5.80364 2.75245 43.5941 2.01312 -7.27006 166.568 34.5039 83.2621 -34.2143 -0.418679 4.99246 58.5027 1.43406 -1.17202 10.7937 0.868169 1.75752 -1.14776 8.31785 -90.2499 10.2366 -2.40092 -0.290939 -1.43218 -2.4114 -0.18493 -23.9827 -2.20244 -0.999401 -3.97 -2.20243 -0.999389 90.5135 -29.9616 -105.754 42.1938 -6.42639 6.51096 9.6411 -12.0712 -1.07175 -17.1599 -0.100041 -8.78909 -92.3712 -45.0865 73.8873 -9.05902 14.4589 -57.2666 1.89325 9.08908 -0.75517 -3.64525 -0.0575455 -7.33837 14.4541 0.666224 -0.572844 -6.89054 0.714102 1.99652 
14.8627 90.0301 -7.63072 109.535 -79.8882 105.587 -164.03 10.3231 98.8649 -72.2939 14.4958 -0.878243 61.4514 1.59269 1.77969 8.7886 3.71032 -0.80597 163.351 38.6842 85.1224 -45.4865 -3.33321 6.25608 64.9351 -2.62391 -3.7974 12.2172 -0.20153 3.28982 -0.752549 8.98901 -90.491 8.88899 -1.71988 -0.855786 -2.78103 -1.75588 -0.779255 -25.3205 -1.38319 -1.33315 -5.30782 -1.38318 -1.33316 89.1635 -27.9411 -109.274 34.504 -10.5688 -3.23627 10.1194 -16.2593 -4.30881 -20.565 -0.641496 -5.76472 -92.6514 -42.5616 72.7112 -2.82494 15.1547 -65.6515 -2.74143 18.7163 0.115883 -10.1944 0.0445342 -6.29838 23.5336 -0.00289555 0.629703 -7.58502 -0.280122 1.12753 
14.7986 88.5507 -4.61771 84.3326 -81.3612 79.4614 -155.279 30.6885 92.2864 -82.5034 10.7311 -3.79222 70.7253 5.44397 2.12054 12.5185 3.73242 -1.65081 159.735 44.6898 85.4831 -51.5168 -7.3653 8.10021 69.9743 -5.31709 -4.77356 11.8317 -0.932127 4.53116 -0.35929 9.44389 -90.5669 7.98051 -0.965136 -1.06353 -3.69053 -1.01101 -1.02004 -26.2232 -0.600925 -1.30438 -6.21052 -0.600933 -1.3044 89.8323 -24.6731 -109.311 24.6881 -8.18228 -17.43 6.87744 -20.3848 -7.76961 -28.584 -1.84651 -1.63792 -93.3024 -41.9373 71.4671 -0.0104868 12.9819 -68.5262 -1.48887 27.7289 -1.39831 -0.614684 0.062768 0.0439472 29.4888 0.127499 3.20053 -5.97686 -1.16548 0.439232 
15.2244 86.7199 -2.12322 41.9512 -81.6498 35.9331 -146.563 44.6622 87.9864 -76.9525 6.24534 -10.3321 74.4469 6.7158 0.303326 14.5097 2.8971 -1.09754 155.037 51.9213 87.3605 -56.4266 -13.3358 10.0273 73.3614 -7.07107 -5.09489 10.9883 -1.85622 6.11047 0.160697 9.70298 -90.3779 7.46837 0.157227 -0.753214 -4.20277 0.123934 -0.7594 -26.7366 0.37633 -0.671141 -6.7239 0.376321 -0.671149 91.4821 -18.2497 -108.727 24.0795 -5.20029 -30.7118 4.42498 -23.6421 -9.33065 -32.6809 -2.70898 0.783081 -93.0468 -40.3056 71.3574 1.65212 11.6122 -71.3975 0.378211 31.0583 -4.41536 7.84708 0.905376 6.76865 32.8218 0.118999 3.04556 -5.37804 -1.20611 1.0195 
16.119 84.398 0.35734 16.1398 -79.7721 10.3143 -146.96 55.1676 91.6699 -66.858 6.15327 -14.4754 72.3943 5.60895 -0.461752 13.9473 2.37432 -0.412575 147.099 57.7203 91.9143 -62.5699 -19.592 11.4541 74.1348 -7.53798 -4.78928 12.1648 -3.2114 8.26789 0.417972 10.0685 -90.3247 6.73837 0.696315 -0.667083 -4.93258 0.666274 -0.697098 -27.4686 0.864594 -0.426981 -7.45593 0.864602 -0.426978 91.7768 -15.3834 -109.476 17.6922 -8.13332 -43.9049 8.26495 -23.6439 -5.17343 -32.2214 -2.84437 1.35658 -94.2643 -40.6712 69.4824 -0.636043 9.14002 -73.763 -0.574957 37.9582 -1.12641 9.14847 1.19072 8.2798 37.5004 0.4444 2.71517 -6.16054 -0.880393 0.834987 
17.8005 80.3283 2.89146 2.78739 -77.2902 -3.40394 -149.036 63.5672 96.9002 -63.2073 10.9463 -14.2932 66.9517 3.31799 0.278413 10.4033 3.20543 -0.668342 135.595 64.9712 99.3003 -72.5233 -26.9145 10.8919 75.6774 -8.57496 -5.39001 11.8298 -4.35811 10.1667 0.559621 10.623 -90.2192 5.63031 1.02676 -0.457598 -6.04032 1.00561 -0.502355 -28.5787 1.1168 -0.127834 -8.56606 1.11681 -0.127827 91.4259 -15.5562 -110.283 13.8281 -7.75277 -53.9892 9.55192 -25.0254 -3.28284 -30.8259 -3.53663 4.38877 -93.0419 -35.8422 69.8483 -1.19769 8.89752 -78.4385 -1.0572 45.0556 -1.37632 8.45421 1.297 10.1187 46.7358 0.865057 3.41373 -8.53515 -1.0903 0.216563 
20.5945 73.7699 5.50616 -9.25596 -75.5497 -15.1805 -136.117 72.4459 89.9666 -74.32 21.4091 -10.8394 65.2362 2.6995 2.7858 17.3875 2.97564 -1.84533 116.118 72.5523 115.145 -87.0751 -32.6402 7.90594 77.1096 -9.57466 -6.11774 12.6538 -6.31224 13.4464 0.685639 10.7663 -90.0404 5.34145 1.35325 -0.107689 -6.32882 1.34719 -0.167166 -28.8694 1.32304 0.304064 -8.85671 1.32303 0.30406 87.8717 -20.4168 -115.878 9.46226 -9.81564 -53.4034 10.7453 -34.6258 -4.39372 -33.2107 -5.03172 7.67462 -94.1117 -38.4302 68.9478 1.18567 9.44452 -78.4391 -2.3489 48.9995 -1.87493 5.15069 0.807893 9.61883 52.0512 1.3075 2.57745 -10.8809 -0.322397 -0.390675 
23.7356 66.352 7.29367 -15.9048 -73.9999 -21.0744 -91.1149 79.4316 49.4851 -93.6148 23.5912 -4.13929 69.4566 4.77151 1.68639 21.7195 1.90354 -1.27194 78.1442 77.2991 150.499 -101.666 -37.4014 3.85457 77.1209 -9.96229 -8.44911 13.1527 -6.78787 14.2906 0.790134 11.1081 -90.0033 4.65732 1.57749 -0.0260579 -7.01267 1.5748 -0.0954988 -29.5551 1.51237 0.44936 -9.54243 1.51236 0.449341 86.0857 -22.1177 -118.773 7.76839 -10.3458 -54.224 11.5423 -39.4601 -3.86952 -36.8363 -6.92489 11.6777 -95.0154 -38.6728 67.527 0.847446 8.26587 -79.3694 -1.58206 50.0738 -2.32765 4.31317 0.876884 12.0862 57.7369 1.2336 2.50124 -12.3053 -0.370187 -1.5232 
